PathFileType	4	(X/Y/Z)	Patient4_TMGait_0pt4_03_right_38.trc.trc
DataRate	CameraRate	NumFrames	NumMarkers	Units	OrigDataRate	OrigDataStartFrame	OrigNumFrames
75.675675675676	75.675675675676	4	33	mm	75.675675675676	106	       141
Frame#	Time	Sacral			L.Shoulder			Chest			R.Shoulder			Neck			R.ASIS			L.ASIS			R.Thigh.Superior			R.Thigh.Lateral			R.Thigh.Inferior			R.Patella			L.Thigh.Superior			L.Thigh.Lateral			L.Thigh.Inferior			L.Patella			L.Shank.Superior			L.Shank.Lateral			L.Shank.Inferior			R.Shank.Superior			R.Shank.Lateral			R.Shank.Inferior			R.Heel			R.Midfoot.Superior			R.Midfoot.Lateral			R.Toe			L.Heel			L.Midfoot.Lateral			L.Midfoot.Superior			L.Toe			L.Elbow			L.Wrist			R.Elbow			R.Wrist			
		X1	Y1	Z1	X2	Y2	Z2	X3	Y3	Z3	X4	Y4	Z4	X5	Y5	Z5	X6	Y6	Z6	X7	Y7	Z7	X8	Y8	Z8	X9	Y9	Z9	X10	Y10	Z10	X11	Y11	Z11	X12	Y12	Z12	X13	Y13	Z13	X14	Y14	Z14	X15	Y15	Z15	X16	Y16	Z16	X17	Y17	Z17	X18	Y18	Z18	X19	Y19	Z19	X20	Y20	Z20	X21	Y21	Z21	X22	Y22	Z22	X23	Y23	Z23	X24	Y24	Z24	X25	Y25	Z25	X26	Y26	Z26	X27	Y27	Z27	X28	Y28	Z28	X29	Y29	Z29	X30	Y30	Z30	X31	Y31	Z31	X32	Y32	Z32	X33	Y33	Z33	

106	51.117500000000	874.209707448091	1009.078026572662	432.605578786185	1048.209747160019	1434.914570198822	236.106514769085	1148.311653556992	1376.143174321047	402.269929531564	1058.085577836502	1450.521868101057	572.996154242072	1023.404394352836	1502.238674522703	393.762029964828	1104.047067954049	955.796491140107	552.544010366513	1092.227591734547	967.537331634459	278.804908817261	1188.550523613096	784.345930977540	525.932977971022	1151.430486344621	663.773359556664	603.962409890108	1239.758170189785	623.664793495734	524.524497941996	1262.011954651515	514.689394902079	550.207217119738	1133.368793032122	749.999193728156	307.585911091219	1037.037090890096	637.244426371074	250.494788330145	1118.853024525069	557.089612446005	311.772826128563	1115.388822062407	489.444661035247	323.176929438650	1089.455455654589	418.208289087036	316.226194212171	998.394805493423	303.845570229123	266.471493036225	1048.606788066827	192.815809193492	339.592608012468	1193.208342842341	435.576202801588	560.623253692907	1079.005384691159	384.480117197216	625.996048742162	1075.009118307564	273.428786402467	579.452628143093	882.376203462126	187.406148543352	560.621331020419	1056.433128206269	149.080452446742	592.441861734665	950.494087394201	135.524513915248	632.313724516868	1137.296357512943	48.208301342978	618.915678118706	920.950036608223	39.169022091424	388.107765251999	992.707819924822	35.252170589571	305.288665965178	1076.581212723674	95.919659090475	330.623910302818	1204.694816628206	43.528951109441	298.589457734852	1097.089088984291	1092.503832963941	100.950100214021	1281.668061778017	906.801232125062	86.263296910045	1023.091977274530	1106.145936214605	702.551237229893	1091.232870791248	852.877007394971	704.973959168836	
107	51.130714285714	873.708562243135	1009.584024209661	431.518162908215	1050.147695712530	1435.471411801397	236.138470285155	1148.550259297121	1376.330021841643	403.168000156199	1056.792328964573	1450.661814469391	573.097049806373	1023.809055029079	1502.585383850041	393.679981014119	1102.947549526467	956.363947331626	552.800376503851	1092.483591915889	967.726126321309	278.995484639898	1188.235324837170	785.983189564348	526.065664610945	1152.377438341187	665.258866646892	604.376045653107	1240.408208496981	625.587148279172	524.540787036381	1264.313246963961	517.894552953420	550.394454172144	1131.400151095069	749.384835644159	308.269034880302	1034.176867939645	637.441962434493	250.326819538668	1114.838358533019	556.560438344275	311.936689658756	1110.682837102823	489.152369771842	323.239064304984	1084.667854036333	418.124873074894	316.117466058534	993.355716733847	303.959064105821	266.239455715453	1043.472984044305	192.873881558556	339.460060388435	1198.299018584467	437.171141391369	561.089403343896	1086.760817395140	381.362051304883	626.918144774291	1087.303492260149	270.186510610196	580.354887783917	898.462262320977	175.818004591607	562.073394792344	1073.982771147662	145.336901658695	593.681345356779	968.946462853842	127.583198914059	634.040796213893	1159.267964136860	48.448676510441	620.885129927220	915.608445522137	39.215338332165	388.033620404118	987.398743185958	35.231253043737	305.223682790769	1071.308124429349	95.902740081211	330.537948601761	1199.405387952572	43.452785801631	298.583053377629	1100.253008372367	1094.131712775587	99.459559052343	1292.235232547198	916.013506007628	84.361051312423	1010.660892187460	1107.524017856231	701.465230008685	1066.679623901697	851.273747429019	704.538061456364	
108	51.143928571429	873.246387617177	1010.057833618609	430.578557835916	1052.115939384078	1435.913479010595	236.372500630341	1148.872461922047	1376.404466928956	404.215299334374	1055.709218863961	1450.760922043971	573.358926574199	1024.299647235294	1502.848170254503	393.766972541552	1101.892741853192	956.722692701435	553.179982248168	1092.751856527392	967.874502206246	279.292111765362	1187.549576365358	787.088586003326	526.285672527987	1152.599380101160	666.271530693715	604.853023516744	1240.247003463864	626.829756967470	524.674506361432	1265.629369336787	520.645520645425	550.612489749711	1129.363010720564	748.744928269676	308.971089209187	1031.203866619858	637.652374576631	250.161755867023	1110.650745729973	556.028915312739	312.092345714571	1105.796983348920	488.882567055362	323.277885717534	1079.729487234557	418.061934998529	315.991686460794	988.205262930562	304.060251502417	266.019760324178	1038.309746127107	192.962207598736	339.345424979282	1202.747572778857	438.399623821968	561.633190138142	1094.480139827621	377.604756983551	628.141001413221	1099.907229152469	266.539747986357	581.474310663881	915.628547023393	163.406342507728	563.946402385255	1092.382430110816	141.323267918465	595.195867613521	988.512737564008	119.120747180783	636.099646709451	1182.177396453402	48.748775810658	623.004304654802	910.271322163586	39.244157748885	387.971945985788	982.083548357204	35.205555149271	305.163676617940	1066.029721573842	95.897295491873	330.458564585307	1194.106556725899	43.398720655641	298.576140471798	1103.002796665500	1095.561498354313	98.210336510344	1302.005123376606	925.265241997435	82.851356866711	998.452214273173	1109.282461162437	700.420207335595	1042.948363091424	850.812438040264	703.944544055530	
109	51.157142857143	872.841485774766	1010.476821055764	429.791906171647	1054.074123936158	1436.225750847790	236.807169379291	1149.266043911636	1376.361196727974	405.401373085527	1054.845235944100	1450.812199278285	573.786463118435	1024.861819203656	1503.014157787721	394.027771004859	1100.898831779116	956.859108593918	553.686453357505	1093.040192513173	967.974182286942	279.690449285944	1186.473964187170	787.611868200709	526.600337994253	1152.027488704224	666.770052350240	605.399528783288	1239.242968539560	627.348301995724	524.955982268396	1265.913617062459	522.889620216504	550.862550796393	1127.299210985920	748.072923637335	309.660190533849	1028.138099960321	637.868275338203	250.004015892388	1106.318828674205	555.491522977002	312.239747149349	1100.768781627072	488.626605544216	323.297894766088	1074.667510663599	418.013282250191	315.858611171568	982.968565027543	304.147001589180	265.818056995653	1033.122416898316	193.071133832400	339.255218682715	1206.500457168446	439.278645731327	562.252414648545	1102.117278040819	373.323260054675	629.637845677909	1112.723208636677	262.655610498678	582.772861074940	933.829752440765	150.497056720319	566.148700066155	1111.506965645102	137.245564291809	596.933144488135	1009.074313722052	110.393426950885	638.388026932710	1205.783205645743	49.259818158004	625.154070987292	904.938600165467	39.254670401284	387.921086351581	976.761450521097	35.174746603104	305.109209411268	1060.744693305327	95.903138926445	330.386052408498	1188.797225122693	43.365630427587	298.568375079414	1105.413107177263	1096.785224036987	97.206194078905	1310.969521363963	934.450534519946	81.737693857472	986.578616865687	1111.391791173792	699.418234116023	1020.201201703358	851.363665917668	703.229607881562	
